<svg class="w-10 h-10" viewBox="0 0 76 76" fill="none" xmlns="http://www.w3.org/2000/svg">
    <path fill-rule="evenodd" clip-rule="evenodd"
        d="M34.9036 27.3737C34.2611 24.0746 33.2874 17.8969 33.2782 13.2211C33.2574 2.77953 35.166 0.011527 37.5272 0.00684189C39.8883 0.00215682 41.9979 2.76219 42.0186 13.2037C42.0279 17.8796 40.9038 24.0614 40.2744 27.363C39.6108 30.8438 38.1285 36.016 37.7126 37.4427C38.9866 37.0704 44.3204 35.5338 47.8827 34.8473C51.1831 34.2113 57.3626 33.2499 62.0385 33.2499C72.4801 33.2499 75.2443 35.164 75.2443 37.5252C75.2443 39.8863 72.4801 41.9904 62.0385 41.9904C57.3626 41.9904 51.1831 40.8541 47.8827 40.2181C44.3154 39.5307 38.9719 37.9791 37.7073 37.6067C38.1158 39.0072 39.608 44.2088 40.2744 47.7045C40.9038 51.0061 42.0279 57.1879 42.0186 61.8638C41.9979 72.3053 39.8883 75.0653 37.5272 75.0606C35.166 75.056 33.2574 72.2879 33.2782 61.8464C33.2874 57.1705 34.2611 50.9929 34.9036 47.6938C35.5817 44.212 37.076 39.0383 37.4925 37.6197C36.1519 38.0141 30.8886 39.5385 27.3616 40.2181C24.0612 40.8541 17.8817 41.9904 13.2058 41.9904C2.76421 41.9904 0 39.8863 0 37.5252C0 35.164 2.76421 33.2499 13.2058 33.2499C17.8817 33.2499 24.0612 34.2113 27.3616 34.8473C30.8839 35.526 36.1381 37.036 37.4873 37.4298C37.0635 35.986 35.5789 30.8409 34.9036 27.3737Z"
        fill="currentColor" />
    <path fill-rule="evenodd" clip-rule="evenodd"
        d="M34.9036 27.3737C34.2611 24.0746 33.2874 17.8969 33.2782 13.2211C33.2574 2.77953 35.166 0.011527 37.5272 0.00684189C39.8883 0.00215682 41.9979 2.76219 42.0186 13.2037C42.0279 17.8796 40.9038 24.0614 40.2744 27.363C39.6108 30.8438 38.1285 36.016 37.7126 37.4427C38.9866 37.0704 44.3204 35.5338 47.8827 34.8473C51.1831 34.2113 57.3626 33.2499 62.0385 33.2499C72.4801 33.2499 75.2443 35.164 75.2443 37.5252C75.2443 39.8863 72.4801 41.9904 62.0385 41.9904C57.3626 41.9904 51.1831 40.8541 47.8827 40.2181C44.3154 39.5307 38.9719 37.9791 37.7073 37.6067C38.1158 39.0072 39.608 44.2088 40.2744 47.7045C40.9038 51.0061 42.0279 57.1879 42.0186 61.8638C41.9979 72.3053 39.8883 75.0653 37.5272 75.0606C35.166 75.056 33.2574 72.2879 33.2782 61.8464C33.2874 57.1705 34.2611 50.9929 34.9036 47.6938C35.5817 44.212 37.076 39.0383 37.4925 37.6197C36.1519 38.0141 30.8886 39.5385 27.3616 40.2181C24.0612 40.8541 17.8817 41.9904 13.2058 41.9904C2.76421 41.9904 0 39.8863 0 37.5252C0 35.164 2.76421 33.2499 13.2058 33.2499C17.8817 33.2499 24.0612 34.2113 27.3616 34.8473C30.8839 35.526 36.1381 37.036 37.4873 37.4298C37.0635 35.986 35.5789 30.8409 34.9036 27.3737Z"
        fill="currentColor" fill-opacity="0.2" />
</svg>