<svg class="w-10 h-10" viewBox="0 0 115 30" fill="none" xmlns="http://www.w3.org/2000/svg">
    <path
        d="M79.8 14.5L57.3 5.70001L34.8 14.5L12.2 5.70001L1.9 9.70001L0 4.79999L12.2 0L34.8 8.79999L57.3 0L79.8 8.79999L102.4 0L114.6 4.79999L112.6 9.70001L102.4 5.70001L79.8 14.5Z"
        fill="currentColor" />
    <path
        d="M79.8 14.5L57.3 5.70001L34.8 14.5L12.2 5.70001L1.9 9.70001L0 4.79999L12.2 0L34.8 8.79999L57.3 0L79.8 8.79999L102.4 0L114.6 4.79999L112.6 9.70001L102.4 5.70001L79.8 14.5Z"
        fill="currentColor" fill-opacity="0.2" />
    <path
        d="M79.8 29.1L57.3 20.2L34.8 29.1L12.2 20.2L1.9 24.3L0 19.3L12.2 14.5L34.8 23.3L57.3 14.5L79.8 23.3L102.4 14.5L114.6 19.3L112.6 24.3L102.4 20.2L79.8 29.1Z"
        fill="currentColor" />
    <path
        d="M79.8 29.1L57.3 20.2L34.8 29.1L12.2 20.2L1.9 24.3L0 19.3L12.2 14.5L34.8 23.3L57.3 14.5L79.8 23.3L102.4 14.5L114.6 19.3L112.6 24.3L102.4 20.2L79.8 29.1Z"
        fill="currentColor" fill-opacity="0.2" />
</svg>