<svg xmlns="http://www.w3.org/2000/svg" version="1.1" xmlns:xlink="http://www.w3.org/1999/xlink" xmlns:svgjs="http://svgjs.dev/svgjs" width="1440" height="560" preserveAspectRatio="none" viewBox="0 0 1440 560"><g mask="url(&quot;#SvgjsMask1616&quot;)" fill="none"><use xlink:href="#SvgjsG1618" transform="translate(0, 0)" fill="rgba(179, 179, 179, 1)"></use><use xlink:href="#SvgjsG1618" transform="translate(720, 0)" fill="rgba(179, 179, 179, 1)"></use></g><defs><mask id="SvgjsMask1616"><rect width="1440" height="560" fill="#ffffff"></rect></mask><g id="SvgjsG1617"><path d="M11.221 11.657c-2.056 2.056-5.389 2.055-7.444 0-2.056-2.056-2.056-5.389 0-7.444 0.976-0.977 2.617-2.176 5.214-2.176 4.749 0 6.224-1.252 6.224-1.252 0 5.707-1.938 8.816-3.994 10.872z"></path><path d="M3.223 11.626L2.552 10.224l6.437-4.363z"></path><path d="M8.989 5.861l1.15 1.15-8.203 8.203-1.151-1.15z"></path></g><g id="SvgjsG1618"><use xlink:href="#SvgjsG1617" transform="translate(0, 0) scale(3)" fill="rgba(179, 179, 179, 1)"></use><use xlink:href="#SvgjsG1617" transform="translate(0, 72) scale(3)" fill="rgba(179, 179, 179, 1)"></use><use xlink:href="#SvgjsG1617" transform="translate(0, 144) scale(3)" fill="rgba(179, 179, 179, 1)"></use><use xlink:href="#SvgjsG1617" transform="translate(0, 216) scale(3)" fill="rgba(179, 179, 179, 1)"></use><use xlink:href="#SvgjsG1617" transform="translate(0, 288) scale(3)" fill="rgba(179, 179, 179, 1)"></use><use xlink:href="#SvgjsG1617" transform="translate(0, 360) scale(3)" fill="rgba(179, 179, 179, 1)"></use><use xlink:href="#SvgjsG1617" transform="translate(0, 432) scale(3)" fill="rgba(179, 179, 179, 1)"></use><use xlink:href="#SvgjsG1617" transform="translate(0, 504) scale(3)" fill="rgba(179, 179, 179, 1)"></use><use xlink:href="#SvgjsG1617" transform="translate(72, 0) scale(3)" fill="rgba(179, 179, 179, 1)"></use><use xlink:href="#SvgjsG1617" transform="translate(72, 72) scale(3)" fill="rgba(179, 179, 179, 1)"></use><use xlink:href="#SvgjsG1617" transform="translate(72, 144) scale(3)" fill="rgba(179, 179, 179, 1)"></use><use xlink:href="#SvgjsG1617" transform="translate(72, 216) scale(3)" fill="rgba(179, 179, 179, 1)"></use><use xlink:href="#SvgjsG1617" transform="translate(72, 288) scale(3)" fill="rgba(179, 179, 179, 1)"></use><use xlink:href="#SvgjsG1617" transform="translate(72, 360) scale(3)" fill="rgba(179, 179, 179, 1)"></use><use xlink:href="#SvgjsG1617" transform="translate(72, 432) scale(3)" fill="rgba(179, 179, 179, 1)"></use><use xlink:href="#SvgjsG1617" transform="translate(72, 504) scale(3)" fill="rgba(179, 179, 179, 1)"></use><use xlink:href="#SvgjsG1617" transform="translate(144, 0) scale(3)" fill="rgba(179, 179, 179, 1)"></use><use xlink:href="#SvgjsG1617" transform="translate(144, 72) scale(3)" fill="rgba(179, 179, 179, 1)"></use><use xlink:href="#SvgjsG1617" transform="translate(144, 144) scale(3)" fill="rgba(179, 179, 179, 1)"></use><use xlink:href="#SvgjsG1617" transform="translate(144, 216) scale(3)" fill="rgba(179, 179, 179, 1)"></use><use xlink:href="#SvgjsG1617" transform="translate(144, 288) scale(3)" fill="rgba(179, 179, 179, 1)"></use><use xlink:href="#SvgjsG1617" transform="translate(144, 360) scale(3)" fill="rgba(179, 179, 179, 1)"></use><use xlink:href="#SvgjsG1617" transform="translate(144, 432) scale(3)" fill="rgba(179, 179, 179, 1)"></use><use xlink:href="#SvgjsG1617" transform="translate(144, 504) scale(3)" fill="rgba(179, 179, 179, 1)"></use><use xlink:href="#SvgjsG1617" transform="translate(216, 0) scale(3)" fill="rgba(179, 179, 179, 1)"></use><use xlink:href="#SvgjsG1617" transform="translate(216, 72) scale(3)" fill="rgba(179, 179, 179, 1)"></use><use xlink:href="#SvgjsG1617" transform="translate(216, 144) scale(3)" fill="rgba(179, 179, 179, 1)"></use><use xlink:href="#SvgjsG1617" transform="translate(216, 216) scale(3)" fill="rgba(179, 179, 179, 1)"></use><use xlink:href="#SvgjsG1617" transform="translate(216, 288) scale(3)" fill="rgba(179, 179, 179, 1)"></use><use xlink:href="#SvgjsG1617" transform="translate(216, 360) scale(3)" fill="rgba(179, 179, 179, 1)"></use><use xlink:href="#SvgjsG1617" transform="translate(216, 432) scale(3)" fill="rgba(179, 179, 179, 1)"></use><use xlink:href="#SvgjsG1617" transform="translate(216, 504) scale(3)" fill="rgba(179, 179, 179, 1)"></use><use xlink:href="#SvgjsG1617" transform="translate(288, 0) scale(3)" fill="rgba(179, 179, 179, 1)"></use><use xlink:href="#SvgjsG1617" transform="translate(288, 72) scale(3)" fill="rgba(179, 179, 179, 1)"></use><use xlink:href="#SvgjsG1617" transform="translate(288, 144) scale(3)" fill="rgba(179, 179, 179, 1)"></use><use xlink:href="#SvgjsG1617" transform="translate(288, 216) scale(3)" fill="rgba(179, 179, 179, 1)"></use><use xlink:href="#SvgjsG1617" transform="translate(288, 288) scale(3)" fill="rgba(179, 179, 179, 1)"></use><use xlink:href="#SvgjsG1617" transform="translate(288, 360) scale(3)" fill="rgba(179, 179, 179, 1)"></use><use xlink:href="#SvgjsG1617" transform="translate(288, 432) scale(3)" fill="rgba(179, 179, 179, 1)"></use><use xlink:href="#SvgjsG1617" transform="translate(288, 504) scale(3)" fill="rgba(179, 179, 179, 1)"></use><use xlink:href="#SvgjsG1617" transform="translate(360, 0) scale(3)" fill="rgba(179, 179, 179, 1)"></use><use xlink:href="#SvgjsG1617" transform="translate(360, 72) scale(3)" fill="rgba(179, 179, 179, 1)"></use><use xlink:href="#SvgjsG1617" transform="translate(360, 144) scale(3)" fill="rgba(179, 179, 179, 1)"></use><use xlink:href="#SvgjsG1617" transform="translate(360, 216) scale(3)" fill="rgba(179, 179, 179, 1)"></use><use xlink:href="#SvgjsG1617" transform="translate(360, 288) scale(3)" fill="rgba(179, 179, 179, 1)"></use><use xlink:href="#SvgjsG1617" transform="translate(360, 360) scale(3)" fill="rgba(179, 179, 179, 1)"></use><use xlink:href="#SvgjsG1617" transform="translate(360, 432) scale(3)" fill="rgba(179, 179, 179, 1)"></use><use xlink:href="#SvgjsG1617" transform="translate(360, 504) scale(3)" fill="rgba(179, 179, 179, 1)"></use><use xlink:href="#SvgjsG1617" transform="translate(432, 0) scale(3)" fill="rgba(179, 179, 179, 1)"></use><use xlink:href="#SvgjsG1617" transform="translate(432, 72) scale(3)" fill="rgba(179, 179, 179, 1)"></use><use xlink:href="#SvgjsG1617" transform="translate(432, 144) scale(3)" fill="rgba(179, 179, 179, 1)"></use><use xlink:href="#SvgjsG1617" transform="translate(432, 216) scale(3)" fill="rgba(179, 179, 179, 1)"></use><use xlink:href="#SvgjsG1617" transform="translate(432, 288) scale(3)" fill="rgba(179, 179, 179, 1)"></use><use xlink:href="#SvgjsG1617" transform="translate(432, 360) scale(3)" fill="rgba(179, 179, 179, 1)"></use><use xlink:href="#SvgjsG1617" transform="translate(432, 432) scale(3)" fill="rgba(179, 179, 179, 1)"></use><use xlink:href="#SvgjsG1617" transform="translate(432, 504) scale(3)" fill="rgba(179, 179, 179, 1)"></use><use xlink:href="#SvgjsG1617" transform="translate(504, 0) scale(3)" fill="rgba(179, 179, 179, 1)"></use><use xlink:href="#SvgjsG1617" transform="translate(504, 72) scale(3)" fill="rgba(179, 179, 179, 1)"></use><use xlink:href="#SvgjsG1617" transform="translate(504, 144) scale(3)" fill="rgba(179, 179, 179, 1)"></use><use xlink:href="#SvgjsG1617" transform="translate(504, 216) scale(3)" fill="rgba(179, 179, 179, 1)"></use><use xlink:href="#SvgjsG1617" transform="translate(504, 288) scale(3)" fill="rgba(179, 179, 179, 1)"></use><use xlink:href="#SvgjsG1617" transform="translate(504, 360) scale(3)" fill="rgba(179, 179, 179, 1)"></use><use xlink:href="#SvgjsG1617" transform="translate(504, 432) scale(3)" fill="rgba(179, 179, 179, 1)"></use><use xlink:href="#SvgjsG1617" transform="translate(504, 504) scale(3)" fill="rgba(179, 179, 179, 1)"></use><use xlink:href="#SvgjsG1617" transform="translate(576, 0) scale(3)" fill="rgba(179, 179, 179, 1)"></use><use xlink:href="#SvgjsG1617" transform="translate(576, 72) scale(3)" fill="rgba(179, 179, 179, 1)"></use><use xlink:href="#SvgjsG1617" transform="translate(576, 144) scale(3)" fill="rgba(179, 179, 179, 1)"></use><use xlink:href="#SvgjsG1617" transform="translate(576, 216) scale(3)" fill="rgba(179, 179, 179, 1)"></use><use xlink:href="#SvgjsG1617" transform="translate(576, 288) scale(3)" fill="rgba(179, 179, 179, 1)"></use><use xlink:href="#SvgjsG1617" transform="translate(576, 360) scale(3)" fill="rgba(179, 179, 179, 1)"></use><use xlink:href="#SvgjsG1617" transform="translate(576, 432) scale(3)" fill="rgba(179, 179, 179, 1)"></use><use xlink:href="#SvgjsG1617" transform="translate(576, 504) scale(3)" fill="rgba(179, 179, 179, 1)"></use><use xlink:href="#SvgjsG1617" transform="translate(648, 0) scale(3)" fill="rgba(179, 179, 179, 1)"></use><use xlink:href="#SvgjsG1617" transform="translate(648, 72) scale(3)" fill="rgba(179, 179, 179, 1)"></use><use xlink:href="#SvgjsG1617" transform="translate(648, 144) scale(3)" fill="rgba(179, 179, 179, 1)"></use><use xlink:href="#SvgjsG1617" transform="translate(648, 216) scale(3)" fill="rgba(179, 179, 179, 1)"></use><use xlink:href="#SvgjsG1617" transform="translate(648, 288) scale(3)" fill="rgba(179, 179, 179, 1)"></use><use xlink:href="#SvgjsG1617" transform="translate(648, 360) scale(3)" fill="rgba(179, 179, 179, 1)"></use><use xlink:href="#SvgjsG1617" transform="translate(648, 432) scale(3)" fill="rgba(179, 179, 179, 1)"></use><use xlink:href="#SvgjsG1617" transform="translate(648, 504) scale(3)" fill="rgba(179, 179, 179, 1)"></use></g></defs></svg>