<svg xmlns="http://www.w3.org/2000/svg" xmlns:xlink="http://www.w3.org/1999/xlink" viewBox="0 0 793 227" width="793" height="227" preserveAspectRatio="xMidYMid meet" style="width: 100%; height: 100%; transform: translate3d(0px, 0px, 0px); content-visibility: visible;"><defs><clipPath id="__lottie_element_2"><rect width="793" height="227" x="0" y="0"></rect></clipPath></defs><g clip-path="url(#__lottie_element_2)"><g style="display: block;" transform="matrix(1,0,0,1,-111.5,-346.5)" opacity="1"><g opacity="1" transform="matrix(1,0,0,1,400.4100036621094,498.0669860839844)"><path fill="rgb(46,163,242)" fill-opacity="1" d=" M-0.32600000500679016,37.10599899291992 C-10.60099983215332,37.10599899291992 -18.975000381469727,33.76300048828125 -25.44700050354004,27.072999954223633 C-31.91900062561035,20.385000228881836 -35.15399932861328,11.668999671936035 -35.15399932861328,0.9259999990463257 C-35.15399932861328,-10.416999816894531 -31.868999481201172,-19.590999603271484 -25.29599952697754,-26.597000122070312 C-18.725000381469727,-33.60300064086914 -10.017000198364258,-37.10599899291992 0.8259999752044678,-37.10599899291992 C11.067999839782715,-37.10599899291992 19.350000381469727,-33.75299835205078 25.672000885009766,-27.04800033569336 C31.993999481201172,-20.341999053955078 35.154998779296875,-11.50100040435791 35.154998779296875,-0.5249999761581421 C35.154998779296875,10.75100040435791 31.87700080871582,19.841999053955078 25.32200050354004,26.74799919128418 C18.767000198364258,33.65299987792969 10.215999603271484,37.10599899291992 -0.32600000500679016,37.10599899291992z M0.37599998712539673,-23.194000244140625 C-5.295000076293945,-23.194000244140625 -9.798999786376953,-21.06800079345703 -13.135000228881836,-16.81399917602539 C-16.472000122070312,-12.5600004196167 -18.141000747680664,-6.929999828338623 -18.141000747680664,0.07599999755620956 C-18.141000747680664,7.181000232696533 -16.472000122070312,12.803000450134277 -13.135000228881836,16.93899917602539 C-9.798999786376953,21.07699966430664 -5.429999828338623,23.143999099731445 -0.02500000037252903,23.143999099731445 C5.545000076293945,23.143999099731445 9.967000007629395,21.135000228881836 13.237000465393066,17.114999771118164 C16.506000518798828,13.095999717712402 18.141000747680664,7.514999866485596 18.141000747680664,0.37599998712539673 C18.141000747680664,-7.064000129699707 16.555999755859375,-12.85200023651123 13.38700008392334,-16.98900032043457 C10.217000007629395,-21.125999450683594 5.88100004196167,-23.194000244140625 0.37599998712539673,-23.194000244140625z"></path></g></g><g style="display: block;" transform="matrix(1,0,0,1,-111.5,-346.5)" opacity="1"><g opacity="1" transform="matrix(1,0,0,1,462.6369934082031,507.8500061035156)"><path fill="rgb(46,163,242)" fill-opacity="1" d=" M16.714000701904297,-10.909000396728516 C14.812999725341797,-11.942999839782715 12.593999862670898,-12.460000038146973 10.057999610900879,-12.460000038146973 C6.622000217437744,-12.460000038146973 3.936000108718872,-11.201000213623047 2.002000093460083,-8.682000160217285 C0.06599999964237213,-6.163000106811523 -0.9010000228881836,-2.7360000610351562 -0.9010000228881836,1.6009999513626099 C-0.9010000228881836,1.6009999513626099 -0.9010000228881836,26.07200050354004 -0.9010000228881836,26.07200050354004 C-0.9010000228881836,26.07200050354004 -16.714000701904297,26.07200050354004 -16.714000701904297,26.07200050354004 C-16.714000701904297,26.07200050354004 -16.714000701904297,-25.17099952697754 -16.714000701904297,-25.17099952697754 C-16.714000701904297,-25.17099952697754 -0.9010000228881836,-25.17099952697754 -0.9010000228881836,-25.17099952697754 C-0.9010000228881836,-25.17099952697754 -0.9010000228881836,-15.663000106811523 -0.9010000228881836,-15.663000106811523 C-0.9010000228881836,-15.663000106811523 -0.7009999752044678,-15.663000106811523 -0.7009999752044678,-15.663000106811523 C1.8009999990463257,-22.601999282836914 6.304999828338623,-26.07200050354004 12.810999870300293,-26.07200050354004 C14.477999687194824,-26.07200050354004 15.779000282287598,-25.871000289916992 16.714000701904297,-25.47100067138672 C16.714000701904297,-25.47100067138672 16.714000701904297,-10.909000396728516 16.714000701904297,-10.909000396728516z"></path></g></g><g style="display: block;" transform="matrix(1,0,0,1,-111.5,-346.5)" opacity="1"><g opacity="1" transform="matrix(1,0,0,1,513.35400390625,496.6159973144531)"><path fill="rgb(46,163,242)" fill-opacity="1" d=" M-10.633999824523926,31.35099983215332 C-10.633999824523926,31.35099983215332 -10.833999633789062,31.35099983215332 -10.833999633789062,31.35099983215332 C-10.833999633789062,31.35099983215332 -10.833999633789062,37.305999755859375 -10.833999633789062,37.305999755859375 C-10.833999633789062,37.305999755859375 -26.64699935913086,37.305999755859375 -26.64699935913086,37.305999755859375 C-26.64699935913086,37.305999755859375 -26.64699935913086,-38.55699920654297 -26.64699935913086,-38.55699920654297 C-26.64699935913086,-38.55699920654297 -10.833999633789062,-38.55699920654297 -10.833999633789062,-38.55699920654297 C-10.833999633789062,-38.55699920654297 -10.833999633789062,-6.230000019073486 -10.833999633789062,-6.230000019073486 C-10.833999633789062,-6.230000019073486 -10.633999824523926,-6.230000019073486 -10.633999824523926,-6.230000019073486 C-6.730000019073486,-12.20199966430664 -1.1759999990463257,-15.187999725341797 6.03000020980835,-15.187999725341797 C12.63599967956543,-15.187999725341797 17.722999572753906,-12.918999671936035 21.292999267578125,-8.381999969482422 C24.86199951171875,-3.8440001010894775 26.64699935913086,2.3610000610351562 26.64699935913086,10.234000205993652 C26.64699935913086,18.774999618530273 24.562000274658203,25.6299991607666 20.39299964904785,30.801000595092773 C16.222000122070312,35.97200012207031 10.649999618530273,38.55699920654297 3.677999973297119,38.55699920654297 C-2.627000093460083,38.55699920654297 -7.3979997634887695,36.15599822998047 -10.633999824523926,31.35099983215332z M-11.083999633789062,9.732999801635742 C-11.083999633789062,9.732999801635742 -11.083999633789062,14.98799991607666 -11.083999633789062,14.98799991607666 C-11.083999633789062,18.291000366210938 -10.133999824523926,21.027000427246094 -8.230999946594238,23.19499969482422 C-6.329999923706055,25.363000869750977 -3.8959999084472656,26.44700050354004 -0.9259999990463257,26.44700050354004 C2.677999973297119,26.44700050354004 5.4710001945495605,25.05500030517578 7.455999851226807,22.268999099731445 C9.440999984741211,19.482999801635742 10.434000015258789,15.538000106811523 10.434000015258789,10.434000015258789 C10.434000015258789,6.197000026702881 9.52400016784668,2.885999917984009 7.706999778747559,0.5009999871253967 C5.888000011444092,-1.8849999904632568 3.2939999103546143,-3.078000068664551 -0.07500000298023224,-3.078000068664551 C-3.24399995803833,-3.078000068664551 -5.872000217437744,-1.8930000066757202 -7.955999851226807,0.47600001096725464 C-10.041999816894531,2.8440001010894775 -11.083999633789062,5.929999828338623 -11.083999633789062,9.732999801635742z"></path></g></g><g style="display: block;" transform="matrix(1,0,0,1,-111.5,-346.5)" opacity="1"><g opacity="1" transform="matrix(1,0,0,1,558.2670288085938,496.1159973144531)"><path fill="rgb(46,163,242)" fill-opacity="1" d=" M0.0010000000474974513,-21.542999267578125 C-2.6679999828338623,-21.542999267578125 -4.854000091552734,-22.336000442504883 -6.554999828338623,-23.92099952697754 C-8.255999565124512,-25.5049991607666 -9.107999801635742,-27.448999404907227 -9.107999801635742,-29.750999450683594 C-9.107999801635742,-32.11899948120117 -8.255999565124512,-34.05400085449219 -6.554999828338623,-35.55500030517578 C-4.854000091552734,-37.05699920654297 -2.6679999828338623,-37.805999755859375 0.0010000000474974513,-37.805999755859375 C2.703000068664551,-37.805999755859375 4.895999908447266,-37.05699920654297 6.581999778747559,-35.55500030517578 C8.265000343322754,-34.05400085449219 9.107999801635742,-32.11899948120117 9.107999801635742,-29.750999450683594 C9.107999801635742,-27.347999572753906 8.265000343322754,-25.3799991607666 6.581999778747559,-23.844999313354492 C4.895999908447266,-22.31100082397461 2.703000068664551,-21.542999267578125 0.0010000000474974513,-21.542999267578125z M7.807000160217285,37.805999755859375 C7.807000160217285,37.805999755859375 -8.005999565124512,37.805999755859375 -8.005999565124512,37.805999755859375 C-8.005999565124512,37.805999755859375 -8.005999565124512,-13.435999870300293 -8.005999565124512,-13.435999870300293 C-8.005999565124512,-13.435999870300293 7.807000160217285,-13.435999870300293 7.807000160217285,-13.435999870300293 C7.807000160217285,-13.435999870300293 7.807000160217285,37.805999755859375 7.807000160217285,37.805999755859375z"></path></g></g><g style="display: block;" transform="matrix(1,0,0,1,-111.5,-346.5)" opacity="1"><g opacity="1" transform="matrix(1,0,0,1,592.5709838867188,501.1440124511719)"><path fill="rgb(46,163,242)" fill-opacity="1" d=" M17.790000915527344,32.176998138427734 C15.454000473022461,33.4109992980957 11.9350004196167,34.02899932861328 7.230000019073486,34.02899932861328 C-3.9119999408721924,34.02899932861328 -9.482999801635742,28.239999771118164 -9.482999801635742,16.663999557495117 C-9.482999801635742,16.663999557495117 -9.482999801635742,-6.804999828338623 -9.482999801635742,-6.804999828338623 C-9.482999801635742,-6.804999828338623 -17.790000915527344,-6.804999828338623 -17.790000915527344,-6.804999828338623 C-17.790000915527344,-6.804999828338623 -17.790000915527344,-18.46500015258789 -17.790000915527344,-18.46500015258789 C-17.790000915527344,-18.46500015258789 -9.482999801635742,-18.46500015258789 -9.482999801635742,-18.46500015258789 C-9.482999801635742,-18.46500015258789 -9.482999801635742,-29.524999618530273 -9.482999801635742,-29.524999618530273 C-9.482999801635742,-29.524999618530273 6.28000020980835,-34.02899932861328 6.28000020980835,-34.02899932861328 C6.28000020980835,-34.02899932861328 6.28000020980835,-18.46500015258789 6.28000020980835,-18.46500015258789 C6.28000020980835,-18.46500015258789 17.790000915527344,-18.46500015258789 17.790000915527344,-18.46500015258789 C17.790000915527344,-18.46500015258789 17.790000915527344,-6.804999828338623 17.790000915527344,-6.804999828338623 C17.790000915527344,-6.804999828338623 6.28000020980835,-6.804999828338623 6.28000020980835,-6.804999828338623 C6.28000020980835,-6.804999828338623 6.28000020980835,13.911999702453613 6.28000020980835,13.911999702453613 C6.28000020980835,19.25 8.39799976348877,21.917999267578125 12.63599967956543,21.917999267578125 C14.303000450134277,21.917999267578125 16.02199935913086,21.434999465942383 17.790000915527344,20.466999053955078 C17.790000915527344,20.466999053955078 17.790000915527344,32.176998138427734 17.790000915527344,32.176998138427734z"></path></g></g><g style="display: block;" transform="matrix(1,0,0,1,-111.5,-346.5)" opacity="1"><g opacity="1" transform="matrix(1,0,0,1,665.8040161132812,494.8139953613281)"><path fill="rgb(255,255,255)" fill-opacity="1" d=" M58.27299880981445,-41.327999114990234 C58.27299880981445,-41.327999114990234 36.426998138427734,41.327999114990234 36.426998138427734,41.327999114990234 C36.426998138427734,41.327999114990234 15.793000221252441,41.327999114990234 15.793000221252441,41.327999114990234 C15.793000221252441,41.327999114990234 2.075000047683716,-11.701000213623047 2.075000047683716,-11.701000213623047 C1.343999981880188,-14.468000411987305 0.902999997138977,-17.559999465942383 0.7490000128746033,-20.979999542236328 C0.7490000128746033,-20.979999542236328 0.5180000066757202,-20.979999542236328 0.5180000066757202,-20.979999542236328 C0.1720000058412552,-17.214000701904297 -0.328000009059906,-14.121999740600586 -0.9800000190734863,-11.701000213623047 C-0.9800000190734863,-11.701000213623047 -15.043999671936035,41.327999114990234 -15.043999671936035,41.327999114990234 C-15.043999671936035,41.327999114990234 -36.542999267578125,41.327999114990234 -36.542999267578125,41.327999114990234 C-36.542999267578125,41.327999114990234 -58.27299880981445,-41.327999114990234 -58.27299880981445,-41.327999114990234 C-58.27299880981445,-41.327999114990234 -37.926998138427734,-41.327999114990234 -37.926998138427734,-41.327999114990234 C-37.926998138427734,-41.327999114990234 -26.284000396728516,13.718999862670898 -26.284000396728516,13.718999862670898 C-25.78499984741211,16.062999725341797 -25.41900062561035,19.214000701904297 -25.18899917602539,23.172000885009766 C-25.18899917602539,23.172000885009766 -24.843000411987305,23.172000885009766 -24.843000411987305,23.172000885009766 C-24.68899917602539,20.21299934387207 -24.131999969482422,16.983999252319336 -23.17099952697754,13.487000465393066 C-23.17099952697754,13.487000465393066 -8.1850004196167,-41.327999114990234 -8.1850004196167,-41.327999114990234 C-8.1850004196167,-41.327999114990234 11.758000373840332,-41.327999114990234 11.758000373840332,-41.327999114990234 C11.758000373840332,-41.327999114990234 25.30299949645996,14.180000305175781 25.30299949645996,14.180000305175781 C25.802000045776367,16.215999603271484 26.2450008392334,19.174999237060547 26.628000259399414,23.055999755859375 C26.628000259399414,23.055999755859375 26.860000610351562,23.055999755859375 26.860000610351562,23.055999755859375 C27.01300048828125,20.020999908447266 27.41699981689453,16.94499969482422 28.06999969482422,13.833000183105469 C28.06999969482422,13.833000183105469 39.481998443603516,-41.327999114990234 39.481998443603516,-41.327999114990234 C39.481998443603516,-41.327999114990234 58.27299880981445,-41.327999114990234 58.27299880981445,-41.327999114990234z"></path></g></g><g style="display: block;" transform="matrix(1,0,0,1,-111.5,-346.5)" opacity="1"><g opacity="1" transform="matrix(1,0,0,1,801.4949951171875,498.0669860839844)"><path fill="rgb(255,255,255)" fill-opacity="1" d=" M-10.635000228881836,31.35099983215332 C-10.635000228881836,31.35099983215332 -10.833999633789062,31.35099983215332 -10.833999633789062,31.35099983215332 C-10.833999633789062,31.35099983215332 -10.833999633789062,37.305999755859375 -10.833999633789062,37.305999755859375 C-10.833999633789062,37.305999755859375 -26.648000717163086,37.305999755859375 -26.648000717163086,37.305999755859375 C-26.648000717163086,37.305999755859375 -26.648000717163086,-38.55699920654297 -26.648000717163086,-38.55699920654297 C-26.648000717163086,-38.55699920654297 -10.833999633789062,-38.55699920654297 -10.833999633789062,-38.55699920654297 C-10.833999633789062,-38.55699920654297 -10.833999633789062,-6.230000019073486 -10.833999633789062,-6.230000019073486 C-10.833999633789062,-6.230000019073486 -10.635000228881836,-6.230000019073486 -10.635000228881836,-6.230000019073486 C-6.730999946594238,-12.20199966430664 -1.1770000457763672,-15.187000274658203 6.0289998054504395,-15.187000274658203 C12.63599967956543,-15.187000274658203 17.722000122070312,-12.918999671936035 21.29199981689453,-8.381999969482422 C24.86199951171875,-3.8440001010894775 26.648000717163086,2.3610000610351562 26.648000717163086,10.234000205993652 C26.648000717163086,18.774999618530273 24.562999725341797,25.6299991607666 20.39299964904785,30.801000595092773 C16.222000122070312,35.97200012207031 10.649999618530273,38.55699920654297 3.677999973297119,38.55699920654297 C-2.628000020980835,38.55699920654297 -7.3979997634887695,36.15599822998047 -10.635000228881836,31.35099983215332z M-11.083999633789062,9.732999801635742 C-11.083999633789062,9.732999801635742 -11.083999633789062,14.98799991607666 -11.083999633789062,14.98799991607666 C-11.083999633789062,18.291000366210938 -10.135000228881836,21.027000427246094 -8.232000350952148,23.19499969482422 C-6.330999851226807,25.363000869750977 -3.8959999084472656,26.44700050354004 -0.9269999861717224,26.44700050354004 C2.677000045776367,26.44700050354004 5.4710001945495605,25.05500030517578 7.455999851226807,22.268999099731445 C9.440999984741211,19.482999801635742 10.4350004196167,15.538000106811523 10.4350004196167,10.434000015258789 C10.4350004196167,6.197000026702881 9.524999618530273,2.885999917984009 7.705999851226807,0.5009999871253967 C5.888000011444092,-1.8849999904632568 3.2929999828338623,-3.078000068664551 -0.07599999755620956,-3.078000068664551 C-3.244999885559082,-3.078000068664551 -5.872000217437744,-1.8919999599456787 -7.955999851226807,0.47600001096725464 C-10.041000366210938,2.8440001010894775 -11.083999633789062,5.929999828338623 -11.083999633789062,9.732999801635742z"></path></g></g><g style="display: block;" transform="matrix(1,0,0,1,-111.5,-346.5)" opacity="1"><g opacity="1" transform="matrix(1,0,0,1,740.8930053710938,509.75201416015625)"><path fill="rgb(255,255,255)" fill-opacity="1" d=" M24.54599952697754,4.504000186920166 C24.54599952697754,4.504000186920166 -8.883000373840332,4.504000186920166 -8.883000373840332,4.504000186920166 C-8.347999572753906,11.942999839782715 -3.6619999408721924,15.663000106811523 5.179999828338623,15.663000106811523 C10.817999839782715,15.663000106811523 15.772000312805176,14.329000473022461 20.04199981689453,11.659000396728516 C20.04199981689453,11.659000396728516 20.04199981689453,23.069000244140625 20.04199981689453,23.069000244140625 C15.303999900817871,25.606000900268555 9.14900016784668,26.871999740600586 1.5759999752044678,26.871999740600586 C-6.697000026702881,26.871999740600586 -13.119999885559082,24.57900047302246 -17.68899917602539,19.990999221801758 C-22.260000228881836,15.404000282287598 -24.54599952697754,9.008000373840332 -24.54599952697754,0.8009999990463257 C-24.54599952697754,-7.706999778747559 -22.07699966430664,-14.444999694824219 -17.138999938964844,-19.416000366210938 C-12.201000213623047,-24.386999130249023 -6.130000114440918,-26.871999740600586 1.0759999752044678,-26.871999740600586 C8.54800033569336,-26.871999740600586 14.329000473022461,-24.65399932861328 18.416000366210938,-20.216999053955078 C22.50200080871582,-15.779999732971191 24.54599952697754,-9.758000373840332 24.54599952697754,-2.1519999504089355 C24.54599952697754,-2.1519999504089355 24.54599952697754,4.504000186920166 24.54599952697754,4.504000186920166z M9.883000373840332,-5.204999923706055 C9.883000373840332,-12.543999671936035 6.914000034332275,-16.214000701904297 0.9760000109672546,-16.214000701904297 C-1.559999942779541,-16.214000701904297 -3.753000020980835,-15.163000106811523 -5.604000091552734,-13.060999870300293 C-7.455999851226807,-10.958999633789062 -8.581999778747559,-8.340999603271484 -8.982000350952148,-5.204999923706055 C-8.982000350952148,-5.204999923706055 9.883000373840332,-5.204999923706055 9.883000373840332,-5.204999923706055z"></path></g></g><g style="display: block;" transform="matrix(1,0,0,1,-106.95001220703125,-344.5)" opacity="1"><g opacity="1" transform="matrix(1,0,0,1,269.10699462890625,460.9219970703125)"><path fill="rgb(46,163,242)" fill-opacity="1" d=" M141.03199768066406,-50.19599914550781 C136.9600067138672,-62.33599853515625 105.70899963378906,-63.59400177001953 62.457000732421875,-55.422000885009766 C47.94900131225586,-70.43699645996094 27.618000030517578,-79.78600311279297 5.090000152587891,-79.78600311279297 C-38.9739990234375,-79.78600311279297 -74.69599914550781,-44.06399917602539 -74.69599914550781,0 C-74.69599914550781,16.31999969482422 -69.78700256347656,31.48699951171875 -61.37900161743164,44.125999450683594 C-62.95399856567383,44.380001068115234 -64.51300048828125,44.62300109863281 -66.04399871826172,44.84400177001953 C-96.11699676513672,49.20199966430664 -117.09400177001953,47.222999572753906 -120.16600036621094,38.064998626708984 C-123.23899841308594,28.90399932861328 -107.73100280761719,14.590999603271484 -81.14099884033203,-0.19900000095367432 C-81.16300201416016,-0.9860000014305115 -81.20099639892578,-1.7690000534057617 -81.20099639892578,-2.562000036239624 C-81.20099639892578,-4.046000003814697 -81.15599822998047,-5.521999835968018 -81.0770034790039,-6.986999988555908 C-120.68499755859375,12.826000213623047 -144.98899841308594,32.89099884033203 -140.9029998779297,45.073001861572266 C-136.8159942626953,57.255001068115234 -105.36299896240234,58.481998443603516 -61.87300109863281,50.2140007019043 C-60.44900131225586,49.94300079345703 -59.01100158691406,49.6609992980957 -57.5620002746582,49.369998931884766 C-42.95100021362305,67.88600158691406 -20.32699966430664,79.78600311279297 5.090000152587891,79.78600311279297 C49.15399932861328,79.78600311279297 84.8740005493164,44.06700134277344 84.8759994506836,0.003000000026077032 C122.30500030517578,-19.19700050354004 144.99000549316406,-38.39699935913086 141.03199768066406,-50.19599914550781z M6.461999893188477,-70.25499725341797 C44.970001220703125,-70.25499725341797 76.18800354003906,-40.38199996948242 76.18800354003906,-3.5290000438690186 C76.18800354003906,-3.066999912261963 76.16100311279297,-2.6110000610351562 76.1510009765625,-2.1510000228881836 C74.84700012207031,-1.4600000381469727 73.53099822998047,-0.765999972820282 72.18199920654297,-0.07400000095367432 C54.57099914550781,8.961000442504883 33.159000396728516,17.98200035095215 9.62399959564209,25.934999465942383 C-9.78499984741211,32.49399948120117 -28.459999084472656,37.577999114990234 -45.3390007019043,41.125999450683594 C-56.47700119018555,29.299999237060547 -63.262001037597656,13.645000457763672 -63.262001037597656,-3.5290000438690186 C-63.262001037597656,-40.38199996948242 -32.04600143432617,-70.25499725341797 6.461999893188477,-70.25499725341797z M6.461999893188477,63.198001861572266 C-11.711999893188477,63.198001861572266 -28.2549991607666,56.53900146484375 -40.66600036621094,45.637001037597656 C-24.327999114990234,41.73500061035156 -6.835999965667725,36.7239990234375 11.197999954223633,30.628999710083008 C33.0880012512207,23.232999801635742 53.417999267578125,15.055000305175781 71.197998046875,6.7129998207092285 C72.70600128173828,6.005000114440918 74.18599700927734,5.296000003814697 75.65599822998047,4.585999965667725 C71.46900177001953,37.608001708984375 42.097999572753906,63.198001861572266 6.461999893188477,63.198001861572266z M84.56900024414062,-6.794000148773193 C83.19000244140625,-23.131000518798828 76.89900207519531,-38.0620002746582 67.16400146484375,-50.106998443603516 C96.7020034790039,-54.277000427246094 117.25700378417969,-52.24700164794922 120.2959976196289,-43.189998626708984 C123.23899841308594,-34.41600036621094 109.12899780273438,-20.913000106811523 84.56900024414062,-6.794000148773193z"></path></g></g><g style="display: block;" transform="matrix(1,0,0,1,-106.95001220703125,-344.5)" opacity="1"><g opacity="1" transform="matrix(1,0,0,1,299.1080017089844,489.9599914550781)"><path fill="rgb(255,255,255)" fill-opacity="1" d=" M-24.777000427246094,-18.81100082397461 C-21.655000686645508,-17.43899917602539 -13.14900016784668,-13.194999694824219 -9.317000389099121,-3.8420000076293945 C-5.190000057220459,6.230000019073486 -9.112000465393066,15.8100004196167 -10.491000175476074,18.81100082397461 C-10.491000175476074,18.81100082397461 24.777000427246094,-17.843000411987305 24.777000427246094,-17.843000411987305 C24.777000427246094,-17.843000411987305 -24.777000427246094,-18.81100082397461 -24.777000427246094,-18.81100082397461z"></path><path strokeLinecap="butt" strokeLinejoin="miter" fill-opacity="0" stroke-miterlimit="10" stroke="rgb(46,163,242)" stroke-opacity="1" strokeWidth="1" d=" M-24.777000427246094,-18.81100082397461 C-21.655000686645508,-17.43899917602539 -13.14900016784668,-13.194999694824219 -9.317000389099121,-3.8420000076293945 C-5.190000057220459,6.230000019073486 -9.112000465393066,15.8100004196167 -10.491000175476074,18.81100082397461 C-10.491000175476074,18.81100082397461 24.777000427246094,-17.843000411987305 24.777000427246094,-17.843000411987305 C24.777000427246094,-17.843000411987305 -24.777000427246094,-18.81100082397461 -24.777000427246094,-18.81100082397461z"></path></g><g opacity="1" transform="matrix(1,0,0,1,305.8429870605469,479.8699951171875)"><path fill="rgb(46,163,242)" fill-opacity="1" d=" M1.6740000247955322,4.4079999923706055 C-0.9309999942779541,5.396999835968018 -3.7929999828338623,4.22599983215332 -4.7170000076293945,1.7920000553131104 C-5.640999794006348,-0.6430000066757202 -4.2789998054504395,-3.4189999103546143 -1.6740000247955322,-4.4079999923706055 C0.9309999942779541,-5.396999835968018 3.7929999828338623,-4.224999904632568 4.7170000076293945,-1.7910000085830688 C5.642000198364258,0.6439999938011169 4.2789998054504395,3.4189999103546143 1.6740000247955322,4.4079999923706055z"></path><path strokeLinecap="butt" strokeLinejoin="miter" fill-opacity="0" stroke-miterlimit="10" stroke="rgb(46,163,242)" stroke-opacity="1" strokeWidth="1" d=" M1.6740000247955322,4.4079999923706055 C-0.9309999942779541,5.396999835968018 -3.7929999828338623,4.22599983215332 -4.7170000076293945,1.7920000553131104 C-5.640999794006348,-0.6430000066757202 -4.2789998054504395,-3.4189999103546143 -1.6740000247955322,-4.4079999923706055 C0.9309999942779541,-5.396999835968018 3.7929999828338623,-4.224999904632568 4.7170000076293945,-1.7910000085830688 C5.642000198364258,0.6439999938011169 4.2789998054504395,3.4189999103546143 1.6740000247955322,4.4079999923706055z"></path></g></g><g transform="matrix(1,0,0,1,100.6710205078125,-385.5780029296875)" opacity="0.003959999999999297" style="display: none;"><g opacity="1" transform="matrix(1,0,0,1,505.3739929199219,500.09698486328125)"><path fill="rgb(46,163,242)" fill-opacity="1" d=" M0,-79.78600311279297 C-44.066001892089844,-79.78600311279297 -79.78600311279297,-44.064998626708984 -79.78600311279297,0 C-79.78600311279297,44.06399917602539 -44.066001892089844,79.78600311279297 0,79.78600311279297 C44.06399917602539,79.78600311279297 79.78600311279297,44.06399917602539 79.78600311279297,0 C79.78600311279297,-44.064998626708984 44.06399917602539,-79.78600311279297 0,-79.78600311279297z M1.371999979019165,63.198001861572266 C-37.13600158691406,63.198001861572266 -68.35299682617188,33.323001861572266 -68.35299682617188,-3.5290000438690186 C-68.35299682617188,-40.38199996948242 -37.13600158691406,-70.25499725341797 1.371999979019165,-70.25499725341797 C39.880001068115234,-70.25499725341797 71.0979995727539,-40.38199996948242 71.0979995727539,-3.5290000438690186 C71.0979995727539,33.323001861572266 39.880001068115234,63.198001861572266 1.371999979019165,63.198001861572266z"></path></g></g><g transform="matrix(1,0,0,1,393.93096923828125,120.11100006103516)" opacity="0.003959999999999297" style="display: none;"><g opacity="1" transform="matrix(1,0,0,1,0,0)"><path strokeLinecap="butt" strokeLinejoin="miter" fill-opacity="0" stroke-miterlimit="4" stroke="rgb(46,163,242)" stroke-opacity="1" strokeWidth="7" d=" M136,-13.5 C136,-13.5 101.1969985961914,-2.3489999771118164 83.93199920654297,13.095000267028809 C59.56800079345703,34.88999938964844 79.0260009765625,44.77199935913086 122,43 C161.0679931640625,41.388999938964844 219.9409942626953,24.60099983215332 251.3350067138672,10.909000396728516 C288.0679931640625,-5.111000061035156 315.0679931640625,-19.611000061035156 327.25,-40.25 C339.4010009765625,-60.8380012512207 301.8210144042969,-61.422000885009766 296.8559875488281,-61.625999450683594 C285.0679931640625,-62.111000061035156 261.5,-58.5 261.5,-58.5"></path></g></g><g style="display: none;" transform="matrix(-0.16507545113563538,-0.04062309488654137,0.04062309488654137,-0.16507545113563538,703.1049194335938,156.62213134765625)" opacity="0.003959999999999297"><g opacity="1" transform="matrix(1,0,0,1,299.1080017089844,489.9599914550781)"><path fill="rgb(255,255,255)" fill-opacity="1" d=" M-24.777000427246094,-18.81100082397461 C-21.655000686645508,-17.43899917602539 -13.14900016784668,-13.194999694824219 -9.317000389099121,-3.8420000076293945 C-5.190000057220459,6.230000019073486 -9.112000465393066,15.8100004196167 -10.491000175476074,18.81100082397461 C-10.491000175476074,18.81100082397461 24.777000427246094,-17.843000411987305 24.777000427246094,-17.843000411987305 C24.777000427246094,-17.843000411987305 -24.777000427246094,-18.81100082397461 -24.777000427246094,-18.81100082397461z"></path><path strokeLinecap="butt" strokeLinejoin="miter" fill-opacity="0" stroke-miterlimit="10" stroke="rgb(46,163,242)" stroke-opacity="1" strokeWidth="1" d=" M-24.777000427246094,-18.81100082397461 C-21.655000686645508,-17.43899917602539 -13.14900016784668,-13.194999694824219 -9.317000389099121,-3.8420000076293945 C-5.190000057220459,6.230000019073486 -9.112000465393066,15.8100004196167 -10.491000175476074,18.81100082397461 C-10.491000175476074,18.81100082397461 24.777000427246094,-17.843000411987305 24.777000427246094,-17.843000411987305 C24.777000427246094,-17.843000411987305 -24.777000427246094,-18.81100082397461 -24.777000427246094,-18.81100082397461z"></path></g><g opacity="1" transform="matrix(1,0,0,1,305.8429870605469,479.8699951171875)"><path fill="rgb(46,163,242)" fill-opacity="1" d=" M1.6740000247955322,4.4079999923706055 C-0.9309999942779541,5.396999835968018 -3.7929999828338623,4.22599983215332 -4.7170000076293945,1.7920000553131104 C-5.640999794006348,-0.6430000066757202 -4.2789998054504395,-3.4189999103546143 -1.6740000247955322,-4.4079999923706055 C0.9309999942779541,-5.396999835968018 3.7929999828338623,-4.224999904632568 4.7170000076293945,-1.7910000085830688 C5.642000198364258,0.6439999938011169 4.2789998054504395,3.4189999103546143 1.6740000247955322,4.4079999923706055z"></path><path strokeLinecap="butt" strokeLinejoin="miter" fill-opacity="0" stroke-miterlimit="10" stroke="rgb(46,163,242)" stroke-opacity="1" strokeWidth="1" d=" M1.6740000247955322,4.4079999923706055 C-0.9309999942779541,5.396999835968018 -3.7929999828338623,4.22599983215332 -4.7170000076293945,1.7920000553131104 C-5.640999794006348,-0.6430000066757202 -4.2789998054504395,-3.4189999103546143 -1.6740000247955322,-4.4079999923706055 C0.9309999942779541,-5.396999835968018 3.7929999828338623,-4.224999904632568 4.7170000076293945,-1.7910000085830688 C5.642000198364258,0.6439999938011169 4.2789998054504395,3.4189999103546143 1.6740000247955322,4.4079999923706055z"></path></g></g><g style="display: none;" transform="matrix(0.9054030776023865,0.2663157284259796,-0.2663157284259796,0.9054030776023865,-20.384658813476562,-361.9678649902344)" opacity="0.0009799999999913211"><g opacity="1" transform="matrix(1,0,0,1,299.1080017089844,489.9599914550781)"><path fill="rgb(255,255,255)" fill-opacity="1" d=" M-24.777000427246094,-18.81100082397461 C-21.655000686645508,-17.43899917602539 -13.14900016784668,-13.194999694824219 -9.317000389099121,-3.8420000076293945 C-5.190000057220459,6.230000019073486 -9.112000465393066,15.8100004196167 -10.491000175476074,18.81100082397461 C-10.491000175476074,18.81100082397461 24.777000427246094,-17.843000411987305 24.777000427246094,-17.843000411987305 C24.777000427246094,-17.843000411987305 -24.777000427246094,-18.81100082397461 -24.777000427246094,-18.81100082397461z"></path><path strokeLinecap="butt" strokeLinejoin="miter" fill-opacity="0" stroke-miterlimit="10" stroke="rgb(46,163,242)" stroke-opacity="1" strokeWidth="1" d=" M-24.777000427246094,-18.81100082397461 C-21.655000686645508,-17.43899917602539 -13.14900016784668,-13.194999694824219 -9.317000389099121,-3.8420000076293945 C-5.190000057220459,6.230000019073486 -9.112000465393066,15.8100004196167 -10.491000175476074,18.81100082397461 C-10.491000175476074,18.81100082397461 24.777000427246094,-17.843000411987305 24.777000427246094,-17.843000411987305 C24.777000427246094,-17.843000411987305 -24.777000427246094,-18.81100082397461 -24.777000427246094,-18.81100082397461z"></path></g><g opacity="1" transform="matrix(1,0,0,1,305.8429870605469,479.8699951171875)"><path fill="rgb(46,163,242)" fill-opacity="1" d=" M1.6740000247955322,4.4079999923706055 C-0.9309999942779541,5.396999835968018 -3.7929999828338623,4.22599983215332 -4.7170000076293945,1.7920000553131104 C-5.640999794006348,-0.6430000066757202 -4.2789998054504395,-3.4189999103546143 -1.6740000247955322,-4.4079999923706055 C0.9309999942779541,-5.396999835968018 3.7929999828338623,-4.224999904632568 4.7170000076293945,-1.7910000085830688 C5.642000198364258,0.6439999938011169 4.2789998054504395,3.4189999103546143 1.6740000247955322,4.4079999923706055z"></path><path strokeLinecap="butt" strokeLinejoin="miter" fill-opacity="0" stroke-miterlimit="10" stroke="rgb(46,163,242)" stroke-opacity="1" strokeWidth="1" d=" M1.6740000247955322,4.4079999923706055 C-0.9309999942779541,5.396999835968018 -3.7929999828338623,4.22599983215332 -4.7170000076293945,1.7920000553131104 C-5.640999794006348,-0.6430000066757202 -4.2789998054504395,-3.4189999103546143 -1.6740000247955322,-4.4079999923706055 C0.9309999942779541,-5.396999835968018 3.7929999828338623,-4.224999904632568 4.7170000076293945,-1.7910000085830688 C5.642000198364258,0.6439999938011169 4.2789998054504395,3.4189999103546143 1.6740000247955322,4.4079999923706055z"></path></g></g></g></svg>